<svg width="1920" height="1124" viewBox="0 0 1920 1124" fill="none" xmlns="http://www.w3.org/2000/svg">
<g clip-path="url(#clip0_345_10444)">
<path d="M1480.11 288.687H1397.36C1394.43 314.469 1389.81 342.125 1384.1 371.031C1380.4 389.312 1373.78 424.312 1356.67 484.469C1348.04 514.625 1314.6 610.719 1307.51 625.094C1306.28 623.844 1293.64 602.906 1287.94 592.594C1274.4 568.461 1262.3 543.519 1251.72 517.906C1250.34 514.469 1241.09 489.625 1239.55 485.25C1235.54 474 1229.07 454 1226.14 445.563C1210.18 394.746 1199.49 342.379 1194.24 289.313H1064.33V354.937H1120.12C1127.81 397.746 1139.05 439.823 1153.71 480.719C1177.64 550.511 1211.71 616.289 1254.81 675.875C1259.52 682.522 1264.67 688.838 1270.22 694.781L1275.77 701.5C1268.83 715.563 1261.9 730.875 1254.96 744.938C1252.65 749.625 1250.34 753.219 1248.03 757.906C1235.24 781.5 1222.44 806.031 1209.65 828.375H1285.17C1300.58 802.594 1317.53 776.656 1331.4 750.25C1372.87 668.335 1408.16 583.352 1436.96 496.031C1457.28 428.325 1471.72 358.946 1480.11 288.687Z" fill="#141414"/>
<path d="M1250.03 287.75C1252.55 372.923 1272.55 456.628 1308.74 533.531C1316.6 510.406 1324.15 488.063 1327.55 475.875C1342.96 421.344 1349.58 388.687 1353.44 369.156L1354.36 364.938C1360.22 335.406 1364.22 310.094 1366.84 287.594L1250.03 287.75Z" fill="#141414"/>
<path d="M1511.24 287.75V292.594C1502.55 364.495 1487.7 435.493 1466.86 504.781V505.563C1447.29 564.469 1424.48 622.594 1399.21 679.469C1405.27 682.631 1411.96 684.392 1418.78 684.625H1655.49C1663.07 684.586 1670.54 682.655 1677.21 679C1683.87 675.212 1689.53 669.852 1693.7 663.375C1731.15 608.219 1823.62 450.719 1823.62 287.594L1511.24 287.75Z" fill="#141414"/>
<path d="M1269.76 917.125C1269.76 927.151 1266.83 936.952 1261.34 945.293C1255.86 953.635 1248.06 960.144 1238.93 964C1229.83 967.888 1219.78 968.869 1210.12 966.812C1200.42 964.928 1191.51 960.138 1184.53 953.062C1177.6 945.935 1172.83 936.929 1170.82 927.125C1168.97 917.294 1169.99 907.128 1173.77 897.882C1177.55 888.636 1183.92 880.714 1192.09 875.094C1201.71 868.634 1213.24 865.743 1224.73 866.911C1236.21 868.078 1246.95 873.232 1255.12 881.5C1264.33 891.024 1269.58 903.783 1269.76 917.125V917.125Z" fill="#141414"/>
<path d="M1720.98 917.125C1720.98 927.151 1718.05 936.952 1712.57 945.293C1707.08 953.635 1699.29 960.144 1690.16 964C1681.06 967.888 1671.01 968.869 1661.34 966.813C1651.65 964.928 1642.74 960.138 1635.76 953.062C1628.82 945.935 1624.06 936.929 1622.04 927.125C1620.19 917.295 1621.22 907.128 1625 897.882C1628.78 888.636 1635.14 880.714 1643.31 875.094C1651.55 869.598 1661.19 866.665 1671.05 866.656C1677.61 866.478 1684.14 867.758 1690.16 870.407C1696.28 872.894 1701.84 876.614 1706.5 881.344C1711.04 885.807 1714.7 891.111 1717.28 896.969C1719.81 903.375 1721.07 910.225 1720.98 917.125V917.125Z" fill="#141414"/>
<path d="M288.401 712.594C204.875 712.594 156.177 669.156 156.177 566.969V353.219H97V286.344H156.177V191.188L238.47 186.5V286.344H340.643V353.219H238.47V565.875C238.47 621.031 261.741 642.125 302.271 642.125C318.316 642.158 334.306 640.217 349.89 636.344L354.513 703.219C333.047 709.61 310.772 712.769 288.401 712.594Z" fill="#141414"/>
<path d="M609.715 275.719C629.19 275.433 648.633 277.425 667.659 281.656L656.101 351.969C642.98 347.867 629.298 345.915 615.57 346.188C582.647 345.698 550.056 352.917 520.332 367.281V703.219H438.039V315.563C491.49 289.1 550.232 275.467 609.715 275.719V275.719Z" fill="#141414"/>
<path d="M862.604 712.594C754.729 712.594 701.408 659.781 701.408 587.594C701.408 501.969 769.832 459.625 862.604 459.625C891.814 459.765 920.935 462.906 949.521 469V435.406C949.521 377.906 918.7 346.187 853.358 346.187C815.575 345.88 778.096 353.045 743.017 367.281L726.836 300.406C769.926 284.454 815.501 276.515 861.372 276.969C973.87 276.969 1029.66 335.562 1029.66 440.094V676.187C977.734 701.953 920.383 714.452 862.604 712.594V712.594ZM948.442 632.75V524.625C923.218 518.394 897.35 515.246 871.388 515.25C820.379 515.25 783.239 532.906 783.239 584.625C783.239 628.062 814.061 650.406 869.077 650.406C896.613 651.825 924.021 645.728 948.442 632.75V632.75Z" fill="#141414"/>
</g>
<defs>
<clipPath id="clip0_345_10444">
<rect width="1726" height="781.25" fill="white" transform="translate(97 186.5)"/>
</clipPath>
</defs>
</svg>
